<?xml version="1.0" encoding="UTF-8" standalone="no"?>
<!-- Created with Inkscape (http://www.inkscape.org/) -->

<svg
   xmlns:dc="http://purl.org/dc/elements/1.1/"
   xmlns:cc="http://creativecommons.org/ns#"
   xmlns:rdf="http://www.w3.org/1999/02/22-rdf-syntax-ns#"
   xmlns:svg="http://www.w3.org/2000/svg"
   xmlns="http://www.w3.org/2000/svg"
   xmlns:sodipodi="http://sodipodi.sourceforge.net/DTD/sodipodi-0.dtd"
   xmlns:inkscape="http://www.inkscape.org/namespaces/inkscape"
   width="128"
   height="128"
   viewBox="0 0 128 128"
   id="svg4136"
   version="1.1"
   inkscape:version="0.91 r13725"
   sodipodi:docname="html2jade-icon.svg"
   inkscape:export-filename="D:\Projects\github_wmaurer\vscode-html2jade\images\html2jade-icon.png"
   inkscape:export-xdpi="90"
   inkscape:export-ydpi="90">
  <defs
     id="defs4138">
    <marker
       inkscape:stockid="TriangleInL"
       orient="auto"
       refY="0.0"
       refX="0.0"
       id="TriangleInL"
       style="overflow:visible"
       inkscape:isstock="true">
      <path
         id="path4841"
         d="M 5.77,0.0 L -2.88,5.0 L -2.88,-5.0 L 5.77,0.0 z "
         style="fill-rule:evenodd;stroke:#e1e1e1;stroke-width:1pt;stroke-opacity:1;fill:#e1e1e1;fill-opacity:1"
         transform="scale(-0.8)" />
    </marker>
    <marker
       inkscape:stockid="Arrow2Lstart"
       orient="auto"
       refY="0.0"
       refX="0.0"
       id="marker6132"
       style="overflow:visible"
       inkscape:isstock="true">
      <path
         id="path6134"
         style="fill-rule:evenodd;stroke-width:0.625;stroke-linejoin:round;stroke:#000000;stroke-opacity:1;fill:#000000;fill-opacity:1"
         d="M 8.7185878,4.0337352 L -2.2072895,0.016013256 L 8.7185884,-4.0017078 C 6.9730900,-1.6296469 6.9831476,1.6157441 8.7185878,4.0337352 z "
         transform="scale(1.1) translate(1,0)" />
    </marker>
    <marker
       inkscape:stockid="TriangleOutL"
       orient="auto"
       refY="0.0"
       refX="0.0"
       id="TriangleOutL"
       style="overflow:visible"
       inkscape:isstock="true">
      <path
         id="path4850"
         d="M 5.77,0.0 L -2.88,5.0 L -2.88,-5.0 L 5.77,0.0 z "
         style="fill-rule:evenodd;stroke:#e1e1e1;stroke-width:1pt;stroke-opacity:1;fill:#e1e1e1;fill-opacity:1"
         transform="scale(0.8)" />
    </marker>
    <marker
       inkscape:stockid="Arrow2Lstart"
       orient="auto"
       refY="0.0"
       refX="0.0"
       id="Arrow2Lstart"
       style="overflow:visible"
       inkscape:isstock="true">
      <path
         id="path4726"
         style="fill-rule:evenodd;stroke-width:0.625;stroke-linejoin:round;stroke:#000000;stroke-opacity:1;fill:#000000;fill-opacity:1"
         d="M 8.7185878,4.0337352 L -2.2072895,0.016013256 L 8.7185884,-4.0017078 C 6.9730900,-1.6296469 6.9831476,1.6157441 8.7185878,4.0337352 z "
         transform="scale(1.1) translate(1,0)" />
    </marker>
    <marker
       inkscape:stockid="Arrow2Mend"
       orient="auto"
       refY="0.0"
       refX="0.0"
       id="Arrow2Mend"
       style="overflow:visible;"
       inkscape:isstock="true">
      <path
         id="path4735"
         style="fill-rule:evenodd;stroke-width:0.625;stroke-linejoin:round;stroke:#000000;stroke-opacity:1;fill:#000000;fill-opacity:1"
         d="M 8.7185878,4.0337352 L -2.2072895,0.016013256 L 8.7185884,-4.0017078 C 6.9730900,-1.6296469 6.9831476,1.6157441 8.7185878,4.0337352 z "
         transform="scale(0.6) rotate(180) translate(0,0)" />
    </marker>
    <marker
       inkscape:stockid="Arrow1Mend"
       orient="auto"
       refY="0.0"
       refX="0.0"
       id="marker5672"
       style="overflow:visible;"
       inkscape:isstock="true">
      <path
         id="path5674"
         d="M 0.0,0.0 L 5.0,-5.0 L -12.5,0.0 L 5.0,5.0 L 0.0,0.0 z "
         style="fill-rule:evenodd;stroke:#000000;stroke-width:1pt;stroke-opacity:1;fill:#000000;fill-opacity:1"
         transform="scale(0.4) rotate(180) translate(10,0)" />
    </marker>
    <marker
       inkscape:stockid="Arrow1Mend"
       orient="auto"
       refY="0.0"
       refX="0.0"
       id="marker5218"
       style="overflow:visible;"
       inkscape:isstock="true">
      <path
         id="path5220"
         d="M 0.0,0.0 L 5.0,-5.0 L -12.5,0.0 L 5.0,5.0 L 0.0,0.0 z "
         style="fill-rule:evenodd;stroke:#000000;stroke-width:1pt;stroke-opacity:1;fill:#000000;fill-opacity:1"
         transform="scale(0.4) rotate(180) translate(10,0)" />
    </marker>
    <marker
       inkscape:stockid="Arrow2Lend"
       orient="auto"
       refY="0.0"
       refX="0.0"
       id="Arrow2Lend"
       style="overflow:visible;"
       inkscape:isstock="true">
      <path
         id="path4729"
         style="fill-rule:evenodd;stroke-width:0.625;stroke-linejoin:round;stroke:#000000;stroke-opacity:1;fill:#000000;fill-opacity:1"
         d="M 8.7185878,4.0337352 L -2.2072895,0.016013256 L 8.7185884,-4.0017078 C 6.9730900,-1.6296469 6.9831476,1.6157441 8.7185878,4.0337352 z "
         transform="scale(1.1) rotate(180) translate(1,0)" />
    </marker>
    <marker
       inkscape:stockid="Arrow1Mstart"
       orient="auto"
       refY="0.0"
       refX="0.0"
       id="Arrow1Mstart"
       style="overflow:visible"
       inkscape:isstock="true">
      <path
         id="path4714"
         d="M 0.0,0.0 L 5.0,-5.0 L -12.5,0.0 L 5.0,5.0 L 0.0,0.0 z "
         style="fill-rule:evenodd;stroke:#000000;stroke-width:1pt;stroke-opacity:1;fill:#000000;fill-opacity:1"
         transform="scale(0.4) translate(10,0)" />
    </marker>
    <marker
       inkscape:stockid="Arrow1Mend"
       orient="auto"
       refY="0.0"
       refX="0.0"
       id="Arrow1Mend"
       style="overflow:visible;"
       inkscape:isstock="true">
      <path
         id="path4717"
         d="M 0.0,0.0 L 5.0,-5.0 L -12.5,0.0 L 5.0,5.0 L 0.0,0.0 z "
         style="fill-rule:evenodd;stroke:#000000;stroke-width:1pt;stroke-opacity:1;fill:#000000;fill-opacity:1"
         transform="scale(0.4) rotate(180) translate(10,0)" />
    </marker>
    <marker
       inkscape:stockid="Arrow1Send"
       orient="auto"
       refY="0.0"
       refX="0.0"
       id="Arrow1Send"
       style="overflow:visible;"
       inkscape:isstock="true">
      <path
         id="path4723"
         d="M 0.0,0.0 L 5.0,-5.0 L -12.5,0.0 L 5.0,5.0 L 0.0,0.0 z "
         style="fill-rule:evenodd;stroke:#000000;stroke-width:1pt;stroke-opacity:1;fill:#000000;fill-opacity:1"
         transform="scale(0.2) rotate(180) translate(6,0)" />
    </marker>
    <marker
       inkscape:stockid="Arrow1Lend"
       orient="auto"
       refY="0.0"
       refX="0.0"
       id="marker4984"
       style="overflow:visible;"
       inkscape:isstock="true">
      <path
         id="path4986"
         d="M 0.0,0.0 L 5.0,-5.0 L -12.5,0.0 L 5.0,5.0 L 0.0,0.0 z "
         style="fill-rule:evenodd;stroke:#000000;stroke-width:1pt;stroke-opacity:1;fill:#000000;fill-opacity:1"
         transform="scale(0.8) rotate(180) translate(12.5,0)" />
    </marker>
    <marker
       inkscape:stockid="Arrow1Lend"
       orient="auto"
       refY="0.0"
       refX="0.0"
       id="Arrow1Lend"
       style="overflow:visible;"
       inkscape:isstock="true">
      <path
         id="path4711"
         d="M 0.0,0.0 L 5.0,-5.0 L -12.5,0.0 L 5.0,5.0 L 0.0,0.0 z "
         style="fill-rule:evenodd;stroke:#000000;stroke-width:1pt;stroke-opacity:1;fill:#000000;fill-opacity:1"
         transform="scale(0.8) rotate(180) translate(12.5,0)" />
    </marker>
  </defs>
  <sodipodi:namedview
     id="base"
     pagecolor="#ffffff"
     bordercolor="#666666"
     borderopacity="1.0"
     inkscape:pageopacity="0"
     inkscape:pageshadow="2"
     inkscape:zoom="3.959798"
     inkscape:cx="34.776592"
     inkscape:cy="67.750832"
     inkscape:document-units="px"
     inkscape:current-layer="layer1"
     showgrid="false"
     units="px"
     inkscape:window-width="1600"
     inkscape:window-height="847"
     inkscape:window-x="-8"
     inkscape:window-y="-8"
     inkscape:window-maximized="1" />
  <metadata
     id="metadata4141">
    <rdf:RDF>
      <cc:Work
         rdf:about="">
        <dc:format>image/svg+xml</dc:format>
        <dc:type
           rdf:resource="http://purl.org/dc/dcmitype/StillImage" />
        <dc:title></dc:title>
      </cc:Work>
    </rdf:RDF>
  </metadata>
  <g
     inkscape:label="Layer 1"
     inkscape:groupmode="layer"
     id="layer1"
     transform="translate(0,-924.36216)">
    <circle
       style="fill:#1e1e1e;fill-opacity:1;stroke:#e1e1e1;stroke-width:0;stroke-linejoin:round;stroke-miterlimit:4;stroke-dasharray:none;stroke-dashoffset:0;stroke-opacity:1"
       id="path6576"
       cx="64"
       cy="988.36218"
       r="63.999996" />
    <path
       inkscape:connector-curvature="0"
       style="fill:#c1272d"
       d="m 107.66621,992.8302 c 0.18413,0.18416 0.20087,0.48544 -0.0167,0.63608 -0.53567,0.35159 -1.222,0.30135 -1.85811,0.23439 -1.07134,-0.1172 -2.34356,-0.16744 -2.89598,-1.17175 -0.0167,0 -0.0167,-0.0168 -0.0334,-0.0336 -0.70307,-0.38504 0.48546,-0.65288 0.82025,-0.70304 0.75329,-0.10048 1.55679,0.1004 2.29335,0.26784 0.61937,0.11712 1.20527,0.28456 1.69071,0.77 l 0,0 z m 9.776,15.9698 c -0.50219,0.3515 -0.28457,0.954 -0.63611,1.3727 -0.35154,0.4017 -1.20525,0.4017 -1.65723,0.4017 -1.92507,0.017 -3.79992,-0.134 -5.69151,0.017 -0.48546,0.034 -0.92069,0.1005 -1.37266,0.2176 -0.13392,0.034 -0.35153,0.1173 -0.5022,0.034 -0.385,-0.2008 -0.73654,-0.837 -1.23874,-0.6362 -0.41849,0.1842 -0.73654,0.7869 -1.23874,0.4186 -0.92068,-0.6864 -1.69071,-0.067 -2.66162,0.1172 -1.00439,0.2008 -1.95855,-0.3516 -2.946193,-0.085 -0.736549,0.2176 -1.439614,0.4352 -2.192909,0.1841 -0.753291,-0.2678 -0.954162,-0.8537 -0.301319,-1.406 1.037868,-0.8539 2.326833,-0.9878 3.615791,-0.8872 1.95855,0.1673 3.90036,0.017 5.85891,-0.084 0.067,0 0.10044,0.034 0.10044,0.084 0.83698,0.3347 1.37266,-0.3349 1.85811,-0.9207 0.067,-0.084 0.18414,-0.034 0.21762,0.017 0.70306,1.0378 1.55679,-0.134 2.444,-0.034 0.23435,0.017 0.45197,0.084 0.60263,0.3011 0.067,0.1006 0.0837,0.2176 0.0837,0.3349 0.0335,0.5356 0.7198,0.4185 0.70307,-0.1173 0,-0.084 0.10044,-0.1673 0.18414,-0.1338 0.70306,0.2847 1.60701,0.6529 2.17616,-0.085 0.48546,-0.6193 0.55242,-1.5065 0.60262,-2.2598 0.10044,-2.0256 -0.0334,-4.1013 -0.18412,-6.11008 -0.11719,-1.95855 -0.3348,-3.95053 -0.10045,-5.90908 0.23437,-1.94184 0.21761,-3.83342 0.18414,-5.79198 -0.0167,-1.02111 -0.067,-2.04223 0,-3.06334 0.0335,-0.93744 0.20087,-1.94183 0.10043,-2.87927 -0.10043,-0.83696 -0.60262,-1.5568 -0.70306,-2.37703 -0.10044,-0.75327 0,-1.54007 0.18414,-2.27663 0.10043,-0.452 0.3348,-1.00439 0.31805,-1.47311 -0.0167,-0.40176 -0.0335,-0.82024 -0.0167,-1.222 0,-0.20088 -0.0334,-0.51888 0.11717,-0.68632 0.23437,-0.28456 0.35154,-0.70303 -0.20088,-0.75327 -1.32244,-0.16744 -2.67835,-1.00438 -3.93383,-0.18416 0.0167,0.28456 0.0334,0.60263 -0.0334,0.88719 l 0.18414,0.2344 c 0.31806,0.13392 0.63611,0.18416 0.98766,0.20088 0.40175,0 0.83698,-0.10048 1.23874,-0.0672 0.33479,0.0336 0.61936,0.3348 0.50218,0.71976 -0.0837,0.28464 -0.3348,0.51896 -0.48545,0.75336 -0.26784,0.41848 -0.21761,1.02111 -0.21761,1.50655 -0.0167,1.222 0,2.44399 0.0334,3.63254 0.0335,1.0044 0.13392,2.02552 0.20088,3.02991 0.0167,0.0168 0.0837,0.0336 0.0837,0.0837 0.0334,1.13831 0.41851,2.25983 0.43524,3.39814 0.0167,0.0168 -0.30132,1.40615 -0.30132,1.40615 -0.0167,1.47312 -0.13392,4.20166 -0.13392,4.20166 -0.0167,2.51096 -0.45196,5.00517 -0.0167,7.49939 0.18414,1.0044 -0.20088,1.9753 -0.23436,2.9797 -0.0335,1.1049 0.10044,2.193 -0.067,3.2978 0.0167,0.067 0,0.134 -0.0837,0.1674 -2.29334,0.4352 -4.62017,0.5189 -6.96374,0.385 -0.58589,-0.034 -1.27221,-0.084 -1.84137,0.1339 -0.21762,0.1005 -0.51893,0.2344 -0.78677,0.2177 -0.33479,-0.034 -0.50218,-0.3014 -0.82024,-0.3516 -0.40176,-0.084 -0.78677,-0.1674 -1.17179,-0.2008 -1.03785,-0.134 -2.025496,-0.201 -2.996409,0.2176 -0.535669,0.2343 -1.104823,0.1339 -1.640493,-0.084 -0.636118,-0.2678 -1.121565,-0.5859 -1.824639,-0.2343 -0.284577,0.1338 -0.535669,0.2845 -0.85373,0.3514 -0.267831,0.067 -0.502186,0 -0.736541,-0.1003 -0.535678,-0.2008 -0.954166,-0.2678 -1.52332,-0.1675 0.06696,0.084 0.01674,0.2344 -0.100439,0.2344 -3.398168,-0.1842 -6.813074,0.2176 -10.211242,0.2678 -0.167397,0.034 -0.284576,0.2176 -0.385014,0.2176 l -0.100438,0 c -0.0837,0 -0.100438,-0.2845 -0.0837,-0.3347 -0.451974,-0.5022 -0.334795,-2.1595 -0.318055,-2.6448 0.133918,-3.164 -0.267836,-6.34453 -0.351535,-9.49163 -0.03348,-1.57351 -0.03348,-3.16383 0.217616,-4.72062 0.301317,-1.75767 0.301317,-3.4651 0.267837,-5.22278 -0.0837,-3.49862 0.267835,-6.98045 0.167398,-10.47907 0,-0.0672 0.06696,-0.0838 0.100437,-0.0672 l 0.03348,-0.0168 c 0.937425,-0.0837 1.958549,-0.33472 2.879235,-0.0837 0.01674,0 0.03348,0.0168 0.03348,0.0336 l 0.133918,0.0168 1.037865,0 c 0.03348,0 0.0837,0.0168 0.0837,0.0336 1.841372,0.0168 3.682743,-0.13384 5.524114,-0.2176 0.636111,-0.0168 1.3057,0 1.941813,-0.20088 0.318052,-0.1004 0.703065,-0.26784 1.037864,-0.23432 0.836984,0.0672 1.690715,0.31808 2.510961,0.50216 0.585896,0.1172 0.987646,-0.8872 1.506578,-0.53568 0.786771,0.50224 1.690724,0.31808 2.59466,0.3348 0.48546,0.0168 0.93743,-0.0837 1.42288,-0.0837 0.26784,0 0.48545,0.0672 0.71981,0.1172 0.23435,-0.0336 0.43523,-0.0168 0.70307,0.0837 l 4.28537,-0.13392 c 0.85373,0.0168 1.79115,0.0837 2.6114,-0.23432 0.21762,-0.0838 0.3348,-0.20088 0.40176,-0.3348 -0.0334,-0.0672 -0.067,-0.13392 -0.10044,-0.21768 -0.067,-0.11712 -0.13392,-0.26784 -0.21762,-0.35152 -0.92068,-0.30128 -1.97528,-0.2176 -2.9462,-0.26784 -1.32243,-0.0672 -2.61139,0.1172 -3.93383,0.2176 -1.222,0.10048 -2.49423,0.18416 -3.716225,0.0838 -0.719812,-0.0672 -2.075728,-0.38503 -2.695104,0.11711 -0.06693,0.0336 -0.117173,0.0336 -0.184137,0 -1.171783,-0.95414 -2.711841,0.48552 -4.051019,0.0838 -0.803507,-0.2344 -1.556796,-0.40176 -2.410523,-0.30136 -0.820247,0.0837 -1.623753,0.20088 -2.46074,0.20088 -1.824632,-0.0168 -3.632525,0.10048 -5.457156,0.0336 -0.401753,-0.0168 -0.786768,-0.0168 -1.155042,-0.0672 -0.318056,-0.0336 -0.73655,-0.20088 -1.054604,-0.0672 -0.502192,0.18408 -0.602632,0.35152 -0.552412,0.50216 0.133918,0.10048 -0.334794,0.73655 -0.334794,1.05463 l -0.03348,0.83696 c -0.01674,1.23871 -0.100438,2.37702 -0.385014,3.5823 -0.133917,0.63616 -0.451973,1.54008 -0.217618,2.17615 0.133919,0.41856 0.451974,0.70311 0.636111,1.07135 0.318056,0.68632 0.334796,1.52336 0.301316,2.25992 l -0.200878,7.19805 c -0.0837,2.39382 -0.234355,4.80428 -0.133917,7.21483 0.0837,2.22639 0.435233,4.50309 0.133917,6.71269 -0.100438,0.7365 -0.987644,2.0423 -0.133917,2.5612 0.485452,0.2846 1.054604,0.3516 1.607015,0.4017 1.355919,0.083 2.711838,-0.067 4.084497,-0.2176 0.502192,-0.067 1.004385,-0.1673 1.506576,-0.1673 0.385015,-0.017 0.736549,0.034 1.104823,0.1673 0.318055,0.1172 0.803507,0.3348 1.171782,0.3348 0.01674,0.017 0.60263,-0.017 0.63611,-0.1841 0.502192,-0.2176 0.937425,-0.385 1.573535,-0.2679 0.619371,0.1172 1.171783,0.2009 1.824631,0.084 0.334799,-0.067 0.836984,-0.1006 1.171783,-0.017 l 0.13392,0.1004 c 0.13392,-0.067 -0.08373,0.1673 -0.217617,0.2176 -0.753287,0.3014 -0.518932,1.2722 -0.60263,1.9251 0,0.067 -0.08373,0.083 -0.117181,0.083 -0.301315,0 -0.719812,0 -0.887206,-0.318 -0.351534,-0.6529 -1.205261,-1.1048 -1.205261,0.2678 0,0.085 -0.06696,0.1172 -0.117178,0.1172 -0.06696,0 -0.117178,-0.034 -0.117178,-0.1172 0,-0.083 -0.887206,-0.5524 -0.987645,-0.6026 -0.435233,-0.2343 -0.937426,-0.519 -1.456358,-0.3348 -0.318055,0.1005 -0.585889,0.2846 -0.887205,0.4185 -0.535672,0.6529 -1.104823,1.3559 -1.891591,0.9374 -0.167397,-0.084 -0.820247,-0.6528 -0.954166,-0.5357 -0.184137,0.2009 -0.385013,0.4018 -0.63611,0.5023 -0.719809,0.2845 -1.473097,0.2343 -2.243125,0.2176 -0.03348,0 -0.117179,-0.034 -0.117179,-0.1005 -0.03348,-0.3013 -0.200875,-0.904 -0.619369,-0.5356 -0.100438,0.084 -0.184138,0.1674 -0.284576,0.2678 -0.117178,0.1004 -0.267836,0.2344 -0.418493,0.3013 -0.502194,0.2009 -2.042249,-0.067 -2.243126,-0.4185 -0.167397,-0.2678 -0.217617,-0.5356 -0.284575,-0.837 -0.117179,-0.7365 -0.03348,-1.54 -0.06696,-2.2934 -0.06696,-1.8916 -0.200877,-3.7496 -0.351534,-5.6412 -0.0837,-0.9542 -0.167399,-1.9419 -0.0837,-2.9128 0.03348,-0.61936 0.06696,-1.47312 0.385013,-2.04223 0.267836,-0.45199 0.0837,-0.82031 -0.267835,-1.15503 -0.0837,-0.10048 -0.117178,-0.28463 -0.117178,-0.40175 -0.06696,-0.70312 0.06696,-1.43968 0.100438,-2.14272 0.03348,-0.51895 0.117177,-1.03783 0.117177,-1.55678 0,-0.40176 -0.0837,-0.7868 -0.117177,-1.17184 -0.01674,-0.2008 -0.03347,-0.40168 0.0837,-0.58584 0.234356,-0.3348 0.200876,-0.51896 0.06696,-0.90399 -0.267836,-0.73656 0,-1.62376 0.03348,-2.39376 0.06696,-0.90391 0.100439,-1.79118 0,-2.71182 -0.100438,-1.0044 -0.301316,-1.97536 -0.234356,-2.99647 0.06696,-0.92063 0.117178,-1.75767 0.167398,-2.66159 0.0837,-1.64047 0.0837,-3.29775 0.03347,-4.93821 l 0,0.38504 c 0,0 -0.133918,-2.09247 0.736548,-2.59471 1.33918,-0.73655 2.962935,-0.61936 4.419292,-0.68632 1.89159,-0.0837 3.799921,0.10048 5.691512,0.10048 1.104822,0 2.192906,-0.0168 3.264249,-0.26783 0.753286,-0.16744 1.506572,-0.2344 2.276606,-0.20088 0.937428,0.0672 1.841372,0.30128 2.762054,0.38495 0.920695,0.0838 1.824639,0.0336 2.74533,-0.0168 1.992031,-0.13391 4.000791,-0.0837 5.992821,0 l 3.1136,0.13392 c 0.48544,0.0168 1.03786,0.13392 1.50657,0.0168 l 0.8872,-0.30079 c 0.65286,-0.18416 1.10483,-0.0168 1.74093,0.13391 l 2.34357,0.5524 c 0.26784,-0.0672 0.51893,-0.0837 0.71981,0.1172 0.43524,0.40176 0.0167,0.90392 0.3348,1.35591 0.385,0.53568 0.73654,0.8872 0.82025,1.57352 0.0837,0.73654 0.11717,1.54006 -0.11718,2.25982 -0.16741,0.48552 -0.38503,1.0044 -0.18415,1.52336 0.11719,0.31807 0.33479,0.61935 0.4185,0.95415 0.1674,0.71984 0.1674,1.43959 0.11717,2.17615 -0.0334,0.83704 -0.0837,1.69071 -0.18413,2.51103 -0.067,0.53568 -0.28458,1.05456 -0.30131,1.57352 -0.0167,0.43519 0.11718,0.80351 0.20088,1.22198 0.28456,1.37264 -0.92069,2.24312 -1.13831,3.49863 -0.11718,0.68632 0.65285,0.38504 1.00439,0.78672 0.2176,0.26784 0.10043,0.70312 0.0837,0.98768 -0.0837,0.73655 0.13391,1.45638 0.10044,2.19294 -0.0334,0.92064 -0.31806,1.67392 -0.10044,2.59463 0.11718,0.51895 0.21762,1.03782 0.10044,1.55678 -0.11718,0.51896 -0.71981,1.82464 0.0837,2.05894 0.0334,0 0.067,0.034 0.067,0.084 0,0.2344 -0.0335,0.4018 -0.13392,0.6194 -0.35154,0.8036 0.20088,0.6361 0.30132,1.155 0.10044,0.4855 -0.18415,0.653 -0.26784,1.1048 -0.11718,0.7199 0.26784,1.2724 0.23436,1.9755 -0.0167,0.6528 -0.38501,1.0211 -0.26784,1.6236 0.0334,0 0.0837,0.034 0.0837,0.084 0.067,0.3181 0.10044,0.6863 -0.0167,1.0044 -0.16739,0.4518 -0.35153,0.5859 0.1674,0.8537 0.13392,-0.1004 0.13392,0.017 0.0502,0.067 l 0,0 z m -8.75488,-22.21369 c -0.31806,-1.95856 -0.5022,-4.00087 -1.15504,-5.87574 -0.28459,-0.78671 -0.41851,-1.64047 -1.33918,-1.79111 -1.20527,-0.20088 -0.80352,0.80352 -0.63612,1.75767 0.23436,1.47311 0.3348,2.97967 0.71981,4.43606 0.26784,1.0044 0.75329,2.19288 -0.58589,1.42288 -2.24312,-1.35592 -3.01315,-4.31887 -3.9171,-6.52853 -0.40176,-1.0044 -1.57353,-3.39815 -2.377038,-4.00078 -0.385012,-0.28456 -2.276607,-0.70312 -2.644886,-0.452 -0.786771,0.53568 1.640498,4.30214 1.975297,4.97173 0.736549,1.50655 1.523307,2.99639 2.477487,4.3523 0.68632,0.95416 1.75766,1.84136 0.23434,2.41056 -1.573529,0.60262 -2.343553,-0.28456 -3.414901,-1.1048 -0.853722,-0.63616 -1.941812,-0.73656 -3.01316,-0.85376 -2.946191,-0.35152 -5.741729,-0.0168 -8.102032,1.94184 -1.138301,0.95414 -1.858111,2.25982 -2.460742,3.59902 -0.167397,0.3348 -1.138302,3.29774 -1.004384,3.31446 -0.602631,-0.1004 -0.234356,-1.50655 -1.004385,-0.68632 -0.686329,0.71984 0.200878,2.7955 0.502192,3.51534 0.68633,1.60703 1.406138,3.18057 1.941811,4.85457 0.535671,1.674 0.652849,1.6405 2.192905,1.7744 1.95855,0.1841 3.88362,-0.4185 5.808694,-0.6529 0,0 -3.41491,-2.1259 3.331209,0.2009 1.506577,0.5189 3.096857,0.3849 4.670393,0.4353 1.12157,-0.268 1.15504,-2.193 1.74093,-3.0969 0.21761,-0.3348 1.30571,-2.04225 1.6405,-2.17617 0.48545,-0.18416 1.17178,0.31799 1.65723,0.38495 2.81227,0.43528 3.68274,-1.87479 3.23078,-4.13469 -0.38502,-1.97527 -0.1674,-4.18494 0.11716,-5.70822 0.11719,-0.5692 -0.48544,-1.79118 -0.58588,-2.31006 l 0,0 z m -12.571558,24.03829 c -0.301314,-0.2846 -0.753286,-0.3516 -1.054601,-0.6528 -0.167395,-0.1843 -0.217617,-0.3517 -0.184133,-0.5525 0,0 -0.01671,0 -0.01671,-0.017 -0.217617,-0.4017 0.284568,-0.7366 0.636105,-0.6025 0.184142,0.084 0.451972,0.2008 0.485456,0.4185 0.01671,0.2845 -0.167404,0.4855 -0.217617,0.7364 0.200871,0.1172 0.40175,0.4019 0.502194,0.5357 0.06693,0.1172 -0.06693,0.2177 -0.150657,0.1339 l 0,0 z"
       id="path5" />
    <polygon
       id="polygon5"
       points="30.002,0 27.377,28.889 16.001,32 4.625,28.889 2,0 "
       style="fill:#e44d26"
       transform="matrix(1.4284694,0,0,1.4284694,9.1430612,968.36359)" />
    <polygon
       id="polygon7"
       points="27.688,2 16,2 16,29.75 25.232,27.008 "
       style="fill:#ff6c39"
       transform="matrix(1.4284694,0,0,1.4284694,9.1430612,968.36359)" />
    <polygon
       id="polygon9"
       points="8,10 8.619,17 19.503,17 19.148,20.984 16,21.99 12.857,20.984 12.648,19 8.803,19 9.262,23.987 16,25.99 22.728,23.986 23.718,13 12.252,13 12.002,10 24,10 24.363,6 7.607,6 "
       style="fill:#1e1e1e;fill-opacity:1"
       transform="matrix(1.4284694,0,0,1.4284694,9.1430612,968.36359)" />
    <path
       style="fill:none;fill-rule:evenodd;stroke:#e1e1e1;stroke-width:1.10008073;stroke-linecap:butt;stroke-linejoin:miter;stroke-miterlimit:4;stroke-dasharray:none;stroke-opacity:1;marker-start:url(#TriangleInL);marker-end:url(#TriangleOutL)"
       d="m 57.673783,990.15551 12.652433,0.4133"
       id="path4702"
       inkscape:connector-curvature="0" />
  </g>
</svg>
