<?xml version="1.0" encoding="UTF-8" standalone="no"?>
<!-- Created with Inkscape (http://www.inkscape.org/) -->

<svg
   xmlns:dc="http://purl.org/dc/elements/1.1/"
   xmlns:cc="http://creativecommons.org/ns#"
   xmlns:rdf="http://www.w3.org/1999/02/22-rdf-syntax-ns#"
   xmlns:svg="http://www.w3.org/2000/svg"
   xmlns="http://www.w3.org/2000/svg"
   xmlns:sodipodi="http://sodipodi.sourceforge.net/DTD/sodipodi-0.dtd"
   xmlns:inkscape="http://www.inkscape.org/namespaces/inkscape"
   width="128"
   height="128"
   viewBox="0 0 128 128"
   id="svg4136"
   version="1.1"
   inkscape:version="0.91 r13725"
   sodipodi:docname="html2jade-icon.svg"
   inkscape:export-filename="D:\Projects\github_wmaurer\vscode-html2jade\images\html2jade-icon.png"
   inkscape:export-xdpi="90"
   inkscape:export-ydpi="90">
  <defs
     id="defs4138">
    <marker
       inkscape:stockid="TriangleInL"
       orient="auto"
       refY="0.0"
       refX="0.0"
       id="TriangleInL"
       style="overflow:visible"
       inkscape:isstock="true">
      <path
         id="path4841"
         d="M 5.77,0.0 L -2.88,5.0 L -2.88,-5.0 L 5.77,0.0 z "
         style="fill-rule:evenodd;stroke:#282c34;stroke-width:1pt;stroke-opacity:1;fill:#282c34;fill-opacity:1"
         transform="scale(-0.8)" />
    </marker>
    <marker
       inkscape:stockid="Arrow2Lstart"
       orient="auto"
       refY="0.0"
       refX="0.0"
       id="marker6132"
       style="overflow:visible"
       inkscape:isstock="true">
      <path
         id="path6134"
         style="fill-rule:evenodd;stroke-width:0.625;stroke-linejoin:round;stroke:#000000;stroke-opacity:1;fill:#000000;fill-opacity:1"
         d="M 8.7185878,4.0337352 L -2.2072895,0.016013256 L 8.7185884,-4.0017078 C 6.9730900,-1.6296469 6.9831476,1.6157441 8.7185878,4.0337352 z "
         transform="scale(1.1) translate(1,0)" />
    </marker>
    <marker
       inkscape:stockid="TriangleOutL"
       orient="auto"
       refY="0.0"
       refX="0.0"
       id="TriangleOutL"
       style="overflow:visible"
       inkscape:isstock="true">
      <path
         id="path4850"
         d="M 5.77,0.0 L -2.88,5.0 L -2.88,-5.0 L 5.77,0.0 z "
         style="fill-rule:evenodd;stroke:#282c34;stroke-width:1pt;stroke-opacity:1;fill:#282c34;fill-opacity:1"
         transform="scale(0.8)" />
    </marker>
    <marker
       inkscape:stockid="Arrow2Lstart"
       orient="auto"
       refY="0.0"
       refX="0.0"
       id="Arrow2Lstart"
       style="overflow:visible"
       inkscape:isstock="true">
      <path
         id="path4726"
         style="fill-rule:evenodd;stroke-width:0.625;stroke-linejoin:round;stroke:#000000;stroke-opacity:1;fill:#000000;fill-opacity:1"
         d="M 8.7185878,4.0337352 L -2.2072895,0.016013256 L 8.7185884,-4.0017078 C 6.9730900,-1.6296469 6.9831476,1.6157441 8.7185878,4.0337352 z "
         transform="scale(1.1) translate(1,0)" />
    </marker>
    <marker
       inkscape:stockid="Arrow2Mend"
       orient="auto"
       refY="0.0"
       refX="0.0"
       id="Arrow2Mend"
       style="overflow:visible;"
       inkscape:isstock="true">
      <path
         id="path4735"
         style="fill-rule:evenodd;stroke-width:0.625;stroke-linejoin:round;stroke:#000000;stroke-opacity:1;fill:#000000;fill-opacity:1"
         d="M 8.7185878,4.0337352 L -2.2072895,0.016013256 L 8.7185884,-4.0017078 C 6.9730900,-1.6296469 6.9831476,1.6157441 8.7185878,4.0337352 z "
         transform="scale(0.6) rotate(180) translate(0,0)" />
    </marker>
    <marker
       inkscape:stockid="Arrow1Mend"
       orient="auto"
       refY="0.0"
       refX="0.0"
       id="marker5672"
       style="overflow:visible;"
       inkscape:isstock="true">
      <path
         id="path5674"
         d="M 0.0,0.0 L 5.0,-5.0 L -12.5,0.0 L 5.0,5.0 L 0.0,0.0 z "
         style="fill-rule:evenodd;stroke:#000000;stroke-width:1pt;stroke-opacity:1;fill:#000000;fill-opacity:1"
         transform="scale(0.4) rotate(180) translate(10,0)" />
    </marker>
    <marker
       inkscape:stockid="Arrow1Mend"
       orient="auto"
       refY="0.0"
       refX="0.0"
       id="marker5218"
       style="overflow:visible;"
       inkscape:isstock="true">
      <path
         id="path5220"
         d="M 0.0,0.0 L 5.0,-5.0 L -12.5,0.0 L 5.0,5.0 L 0.0,0.0 z "
         style="fill-rule:evenodd;stroke:#000000;stroke-width:1pt;stroke-opacity:1;fill:#000000;fill-opacity:1"
         transform="scale(0.4) rotate(180) translate(10,0)" />
    </marker>
    <marker
       inkscape:stockid="Arrow2Lend"
       orient="auto"
       refY="0.0"
       refX="0.0"
       id="Arrow2Lend"
       style="overflow:visible;"
       inkscape:isstock="true">
      <path
         id="path4729"
         style="fill-rule:evenodd;stroke-width:0.625;stroke-linejoin:round;stroke:#000000;stroke-opacity:1;fill:#000000;fill-opacity:1"
         d="M 8.7185878,4.0337352 L -2.2072895,0.016013256 L 8.7185884,-4.0017078 C 6.9730900,-1.6296469 6.9831476,1.6157441 8.7185878,4.0337352 z "
         transform="scale(1.1) rotate(180) translate(1,0)" />
    </marker>
    <marker
       inkscape:stockid="Arrow1Mstart"
       orient="auto"
       refY="0.0"
       refX="0.0"
       id="Arrow1Mstart"
       style="overflow:visible"
       inkscape:isstock="true">
      <path
         id="path4714"
         d="M 0.0,0.0 L 5.0,-5.0 L -12.5,0.0 L 5.0,5.0 L 0.0,0.0 z "
         style="fill-rule:evenodd;stroke:#000000;stroke-width:1pt;stroke-opacity:1;fill:#000000;fill-opacity:1"
         transform="scale(0.4) translate(10,0)" />
    </marker>
    <marker
       inkscape:stockid="Arrow1Mend"
       orient="auto"
       refY="0.0"
       refX="0.0"
       id="Arrow1Mend"
       style="overflow:visible;"
       inkscape:isstock="true">
      <path
         id="path4717"
         d="M 0.0,0.0 L 5.0,-5.0 L -12.5,0.0 L 5.0,5.0 L 0.0,0.0 z "
         style="fill-rule:evenodd;stroke:#000000;stroke-width:1pt;stroke-opacity:1;fill:#000000;fill-opacity:1"
         transform="scale(0.4) rotate(180) translate(10,0)" />
    </marker>
    <marker
       inkscape:stockid="Arrow1Send"
       orient="auto"
       refY="0.0"
       refX="0.0"
       id="Arrow1Send"
       style="overflow:visible;"
       inkscape:isstock="true">
      <path
         id="path4723"
         d="M 0.0,0.0 L 5.0,-5.0 L -12.5,0.0 L 5.0,5.0 L 0.0,0.0 z "
         style="fill-rule:evenodd;stroke:#000000;stroke-width:1pt;stroke-opacity:1;fill:#000000;fill-opacity:1"
         transform="scale(0.2) rotate(180) translate(6,0)" />
    </marker>
    <marker
       inkscape:stockid="Arrow1Lend"
       orient="auto"
       refY="0.0"
       refX="0.0"
       id="marker4984"
       style="overflow:visible;"
       inkscape:isstock="true">
      <path
         id="path4986"
         d="M 0.0,0.0 L 5.0,-5.0 L -12.5,0.0 L 5.0,5.0 L 0.0,0.0 z "
         style="fill-rule:evenodd;stroke:#000000;stroke-width:1pt;stroke-opacity:1;fill:#000000;fill-opacity:1"
         transform="scale(0.8) rotate(180) translate(12.5,0)" />
    </marker>
    <marker
       inkscape:stockid="Arrow1Lend"
       orient="auto"
       refY="0.0"
       refX="0.0"
       id="Arrow1Lend"
       style="overflow:visible;"
       inkscape:isstock="true">
      <path
         id="path4711"
         d="M 0.0,0.0 L 5.0,-5.0 L -12.5,0.0 L 5.0,5.0 L 0.0,0.0 z "
         style="fill-rule:evenodd;stroke:#000000;stroke-width:1pt;stroke-opacity:1;fill:#000000;fill-opacity:1"
         transform="scale(0.8) rotate(180) translate(12.5,0)" />
    </marker>
  </defs>
  <sodipodi:namedview
     id="base"
     pagecolor="#ffffff"
     bordercolor="#666666"
     borderopacity="1.0"
     inkscape:pageopacity="0"
     inkscape:pageshadow="2"
     inkscape:zoom="3.959798"
     inkscape:cx="34.776592"
     inkscape:cy="67.750832"
     inkscape:document-units="px"
     inkscape:current-layer="layer1"
     showgrid="false"
     units="px"
     inkscape:window-width="1600"
     inkscape:window-height="847"
     inkscape:window-x="-8"
     inkscape:window-y="-8"
     inkscape:window-maximized="1" />
  <metadata
     id="metadata4141">
    <rdf:RDF>
      <cc:Work
         rdf:about="">
        <dc:format>image/svg+xml</dc:format>
        <dc:type
           rdf:resource="http://purl.org/dc/dcmitype/StillImage" />
        <dc:title></dc:title>
      </cc:Work>
    </rdf:RDF>
  </metadata>
  <g
     inkscape:label="Layer 1"
     inkscape:groupmode="layer"
     id="layer1"
     transform="translate(0,-924.36216)">
    <ellipse
       style="fill:#efece7;fill-opacity:1;stroke:#e1e1e1;stroke-width:0;stroke-linejoin:round;stroke-miterlimit:4;stroke-dasharray:none;stroke-dashoffset:0;stroke-opacity:1"
       id="path6576"
       cx="64"
       cy="988.36218"
       rx="63.999992"
       ry="62.117634" />
    <path
       inkscape:connector-curvature="0"
       style="fill:#c1272d"
       d="m 111.43708,990.49747 c 0.20715,0.20718 0.22599,0.54612 -0.0188,0.71559 -0.60263,0.39554 -1.37476,0.33902 -2.09038,0.26369 -1.20527,-0.13185 -2.63652,-0.18837 -3.25799,-1.31822 -0.0188,0 -0.0188,-0.0189 -0.0376,-0.0378 -0.79095,-0.43317 0.54614,-0.73449 0.92279,-0.79092 0.84745,-0.11304 1.75139,0.11295 2.58002,0.30132 0.69679,0.13176 1.35593,0.32013 1.90206,0.86625 l 0,0 z m 10.99804,17.96603 c -0.56497,0.3955 -0.32014,1.0733 -0.71563,1.5443 -0.39548,0.4519 -1.35591,0.4519 -1.86439,0.4519 -2.16571,0.019 -4.27492,-0.1507 -6.40297,0.019 -0.54614,0.038 -1.03578,0.113 -1.54424,0.2448 -0.15066,0.038 -0.39548,0.1319 -0.56498,0.038 -0.43313,-0.2259 -0.82861,-0.9417 -1.39359,-0.7157 -0.4708,0.2072 -0.82861,0.8852 -1.39358,0.4709 -1.03577,-0.7722 -1.90206,-0.075 -2.99433,0.1318 -1.12994,0.2259 -2.20338,-0.3955 -3.31448,-0.095 -0.82862,0.2448 -1.61957,0.4896 -2.46703,0.2071 -0.847455,-0.3013 -1.073435,-0.9604 -0.338985,-1.5818 1.167605,-0.9606 2.617695,-1.1112 4.067775,-0.9981 2.20338,0.1882 4.38792,0.019 6.59129,-0.094 0.0754,0 0.113,0.038 0.113,0.094 0.94161,0.3766 1.54425,-0.3767 2.09038,-1.0358 0.0754,-0.094 0.20716,-0.038 0.24482,0.019 0.79095,1.1676 1.7514,-0.1507 2.74951,-0.038 0.26365,0.019 0.50847,0.095 0.67796,0.3388 0.0754,0.1131 0.0942,0.2448 0.0942,0.3767 0.0377,0.6026 0.80978,0.4708 0.79095,-0.1319 0,-0.095 0.113,-0.1882 0.20716,-0.1506 0.79095,0.3203 1.80789,0.7345 2.44819,-0.095 0.54614,-0.6967 0.62147,-1.6948 0.67795,-2.5423 0.113,-2.2788 -0.0376,-4.614 -0.20714,-6.87387 -0.13183,-2.20338 -0.37665,-4.44436 -0.113,-6.64774 0.26366,-2.18457 0.24481,-4.31261 0.20715,-6.51599 -0.0188,-1.14876 -0.0754,-2.29752 0,-3.44627 0.0377,-1.05462 0.22599,-2.18457 0.11299,-3.23919 -0.11299,-0.94158 -0.67795,-1.7514 -0.79095,-2.67417 -0.11299,-0.84743 0,-1.73258 0.20716,-2.56121 0.11299,-0.5085 0.37665,-1.12995 0.35781,-1.65726 -0.0188,-0.45198 -0.0377,-0.92277 -0.0188,-1.37475 0,-0.22599 -0.0376,-0.58374 0.13182,-0.77211 0.26366,-0.32013 0.39548,-0.79091 -0.22599,-0.84743 -1.48775,-0.18837 -3.01316,-1.12994 -4.42558,-0.20718 0.0188,0.32013 0.0376,0.67796 -0.0376,0.99809 l 0.20716,0.2637 c 0.35781,0.15066 0.71562,0.20718 1.11111,0.22599 0.45198,0 0.94161,-0.11304 1.39359,-0.0756 0.37664,0.0378 0.69678,0.37665 0.56496,0.80973 -0.0942,0.32022 -0.37665,0.58383 -0.54614,0.84753 -0.30132,0.47079 -0.24481,1.14876 -0.24481,1.69488 -0.0188,1.37475 0,2.74949 0.0376,4.08662 0.0377,1.12995 0.15066,2.27871 0.22599,3.40866 0.0188,0.0189 0.0942,0.0378 0.0942,0.0942 0.0376,1.28061 0.47082,2.54232 0.48964,3.82292 0.0188,0.0189 -0.33898,1.58193 -0.33898,1.58193 -0.0188,1.65726 -0.15066,4.72688 -0.15066,4.72688 -0.0188,2.82483 -0.50846,5.63083 -0.0188,8.43685 0.20715,1.12999 -0.22599,2.22219 -0.26366,3.35219 -0.0377,1.243 0.113,2.4671 -0.0754,3.71 0.0188,0.075 0,0.1507 -0.0942,0.1883 -2.58002,0.4896 -5.19771,0.5838 -7.83423,0.4332 -0.65913,-0.038 -1.43125,-0.095 -2.07155,0.1506 -0.24482,0.1131 -0.5838,0.2637 -0.88512,0.2449 -0.37664,-0.038 -0.56496,-0.3391 -0.92277,-0.3955 -0.45198,-0.095 -0.88512,-0.1884 -1.31827,-0.226 -1.16759,-0.1507 -2.27869,-0.2261 -3.37097,0.2449 -0.60263,0.2635 -1.24293,0.1506 -1.84556,-0.094 -0.715635,-0.3013 -1.261765,-0.6591 -2.052725,-0.2636 -0.32015,0.1506 -0.60263,0.3201 -0.96045,0.3954 -0.30131,0.075 -0.56496,0 -0.82861,-0.1129 -0.60264,-0.2259 -1.07344,-0.3013 -1.713741,-0.1884 0.07533,0.094 0.01883,0.2637 -0.112994,0.2637 -3.82295,-0.2072 -7.66473,0.2448 -11.48768,0.3013 -0.188323,0.038 -0.320149,0.2448 -0.433142,0.2448 l -0.112994,0 c -0.09416,0 -0.112993,-0.3201 -0.09416,-0.3766 -0.508472,-0.565 -0.376645,-2.4294 -0.357813,-2.9754 0.150658,-3.5595 -0.301316,-7.13761 -0.395478,-10.67811 -0.03767,-1.7702 -0.03767,-3.55931 0.244819,-5.31071 0.338982,-1.97738 0.338982,-3.89825 0.301317,-5.87564 -0.09416,-3.93596 0.301316,-7.85303 0.188323,-11.78899 0,-0.0756 0.07533,-0.0943 0.112993,-0.0756 l 0.03766,-0.0189 c 1.054606,-0.0942 2.203374,-0.37656 3.239149,-0.0942 0.01883,0 0.03767,0.0189 0.03767,0.0378 l 0.150658,0.0189 1.167601,0 c 0.03767,0 0.09416,0.0189 0.09416,0.0378 2.071549,0.0189 4.143098,-0.15057 6.214646,-0.2448 0.715627,-0.0189 1.468917,0 2.184546,-0.22599 0.35781,-0.11295 0.79095,-0.30132 1.1676,-0.26361 0.94161,0.0756 1.90206,0.35784 2.82484,0.56493 0.659135,0.13185 1.111105,-0.9981 1.694905,-0.60264 0.88512,0.56502 1.90207,0.35784 2.919,0.37665 0.54614,0.0189 1.05461,-0.0942 1.60075,-0.0942 0.30132,0 0.54613,0.0756 0.80978,0.13185 0.26365,-0.0378 0.48964,-0.0189 0.79096,0.0942 l 4.82106,-0.15066 c 0.96044,0.0189 2.01505,0.0942 2.93783,-0.26361 0.24482,-0.0943 0.37665,-0.22599 0.45198,-0.37665 -0.0376,-0.0756 -0.0754,-0.15066 -0.11299,-0.24489 -0.0754,-0.13176 -0.15066,-0.30132 -0.24483,-0.39546 -1.03577,-0.33894 -2.2222,-0.2448 -3.31448,-0.30132 -1.48774,-0.0756 -2.93783,0.13185 -4.42558,0.2448 -1.37475,0.11304 -2.80601,0.20718 -4.18076,0.0943 -0.80979,-0.0756 -2.3352,-0.43316 -3.032,0.13176 -0.0753,0.0378 -0.13182,0.0378 -0.207155,0 -1.31826,-1.07342 -3.05083,0.54621 -4.55741,0.0943 -0.903948,-0.2637 -1.7514,-0.45198 -2.711846,-0.33903 -0.922781,0.0942 -1.826728,0.22599 -2.768341,0.22599 -2.052717,-0.0189 -4.086602,0.11304 -6.139318,0.0378 -0.451974,-0.0189 -0.885117,-0.0189 -1.299426,-0.0756 -0.357814,-0.0378 -0.828621,-0.22599 -1.186433,-0.0756 -0.564968,0.20709 -0.677963,0.39546 -0.621465,0.56493 0.150658,0.11304 -0.376645,0.82863 -0.376645,1.18647 l -0.03767,0.94158 c -0.01883,1.39355 -0.112994,2.67416 -0.433143,4.0301 -0.150657,0.71568 -0.508471,1.73259 -0.24482,2.44818 0.150659,0.47088 0.508472,0.791 0.715626,1.20527 0.357814,0.77211 0.376647,1.71378 0.338982,2.54241 l -0.225988,8.09783 c -0.09416,2.69306 -0.263651,5.40484 -0.150657,8.11671 0.09416,2.50475 0.489638,5.06595 0.150657,7.55185 -0.112994,0.8285 -1.111103,2.2976 -0.150657,2.8813 0.546135,0.3202 1.186432,0.3956 1.807897,0.4519 1.525413,0.094 3.050826,-0.075 4.595072,-0.2448 0.564968,-0.075 1.129936,-0.1882 1.694903,-0.1882 0.433143,-0.019 0.82862,0.038 1.24293,0.1882 0.357812,0.1319 0.903948,0.3767 1.318258,0.3767 0.01883,0.019 0.677961,-0.019 0.715626,-0.2071 0.564968,-0.2448 1.054606,-0.4332 1.770232,-0.3014 0.696794,0.1318 1.31826,0.226 2.052716,0.095 0.37665,-0.075 0.94161,-0.1131 1.31826,-0.019 l 0.15066,0.113 c 0.15066,-0.075 -0.0942,0.1882 -0.24482,0.2448 -0.84745,0.339 -0.5838,1.4312 -0.67796,2.1657 0,0.075 -0.0942,0.094 -0.13183,0.094 -0.33898,0 -0.80979,0 -0.998109,-0.3578 -0.395477,-0.7345 -1.355923,-1.2429 -1.355923,0.3013 0,0.095 -0.07533,0.1318 -0.131825,0.1318 -0.07533,0 -0.131826,-0.038 -0.131826,-0.1318 0,-0.094 -0.99811,-0.6215 -1.111104,-0.678 -0.489639,-0.2635 -1.054607,-0.5838 -1.638407,-0.3766 -0.357813,0.1131 -0.659128,0.3202 -0.998109,0.4708 -0.602633,0.7345 -1.24293,1.5254 -2.128046,1.0546 -0.188322,-0.095 -0.922781,-0.7344 -1.07344,-0.6027 -0.207155,0.226 -0.433141,0.452 -0.715626,0.5651 -0.809787,0.3201 -1.657239,0.2636 -2.523523,0.2448 -0.03766,0 -0.131826,-0.038 -0.131826,-0.113 -0.03767,-0.339 -0.225986,-1.017 -0.696793,-0.6026 -0.112993,0.095 -0.207155,0.1883 -0.320149,0.3013 -0.131825,0.1129 -0.301316,0.2637 -0.470806,0.3389 -0.564969,0.226 -2.297536,-0.075 -2.523524,-0.4708 -0.188322,-0.3013 -0.244819,-0.6025 -0.320148,-0.9416 -0.131826,-0.8286 -0.03766,-1.7325 -0.07533,-2.5801 -0.07533,-2.128 -0.225987,-4.2183 -0.395477,-6.3464 -0.09416,-1.07348 -0.188324,-2.18462 -0.09416,-3.27686 0.03766,-0.69678 0.07533,-1.65726 0.433141,-2.29752 0.301316,-0.50849 0.09416,-0.92285 -0.301316,-1.29941 -0.09416,-0.11304 -0.131825,-0.32021 -0.131825,-0.45197 -0.07533,-0.79101 0.07533,-1.61964 0.112993,-2.41056 0.03767,-0.58383 0.131825,-1.16757 0.131825,-1.75139 0,-0.45198 -0.09416,-0.88515 -0.131825,-1.31832 -0.01883,-0.2259 -0.03766,-0.45189 0.09416,-0.65907 0.263652,-0.37665 0.225987,-0.58383 0.07533,-1.017 -0.301317,-0.82863 0,-1.82673 0.03766,-2.69298 0.07533,-1.0169 0.112994,-2.01509 0,-3.05081 -0.112993,-1.12995 -0.338981,-2.22228 -0.263651,-3.37104 0.07533,-1.03571 0.131826,-1.97738 0.188323,-2.99429 0.09416,-1.84554 0.09416,-3.70998 0.03766,-5.55551 l 0,0.43317 c 0,0 -0.150659,-2.35403 0.828619,-2.91905 1.506581,-0.82863 3.333311,-0.69678 4.971718,-0.77211 2.128045,-0.0942 4.274923,0.11304 6.402969,0.11304 1.242929,0 2.467027,-0.0189 3.672291,-0.30132 0.847449,-0.18837 1.694899,-0.2637 2.561189,-0.22599 1.05461,0.0756 2.07155,0.33894 3.10732,0.43308 1.035785,0.0943 2.052725,0.0378 3.088505,-0.0189 2.24104,-0.15066 4.5009,-0.0942 6.74194,0 l 3.50281,0.15066 c 0.54613,0.0189 1.1676,0.15066 1.6949,0.0189 l 0.9981,-0.3384 c 0.73447,-0.20718 1.24294,-0.0189 1.95856,0.15066 l 2.63652,0.62145 c 0.30132,-0.0756 0.5838,-0.0942 0.80979,0.13185 0.48964,0.45198 0.0188,1.01691 0.37665,1.5254 0.43313,0.60264 0.82861,0.9981 0.92278,1.77021 0.0942,0.82862 0.13182,1.73258 -0.13183,2.54231 -0.18833,0.54621 -0.43315,1.12995 -0.20716,1.71378 0.13183,0.35784 0.37664,0.69678 0.47081,1.07343 0.18833,0.80982 0.18833,1.61954 0.13182,2.44817 -0.0376,0.94167 -0.0942,1.90206 -0.20715,2.82492 -0.0754,0.60264 -0.32015,1.18638 -0.33898,1.77021 -0.0188,0.4896 0.13183,0.90396 0.22599,1.37474 0.32014,1.54422 -1.03578,2.52351 -1.2806,3.93597 -0.13183,0.77211 0.73446,0.43317 1.12994,0.88506 0.24481,0.30132 0.11299,0.79101 0.0942,1.11114 -0.0942,0.82862 0.15065,1.63844 0.113,2.46707 -0.0376,1.03572 -0.35782,1.88316 -0.113,2.91896 0.13183,0.58382 0.24482,1.16756 0.113,1.75139 -0.13183,0.58383 -0.80979,2.05272 0.0942,2.31633 0.0376,0 0.0754,0.0378 0.0754,0.0943 0,0.26361 -0.0377,0.45198 -0.15066,0.69678 -0.39548,0.90402 0.22599,0.71562 0.33899,1.29942 0.11299,0.5461 -0.20717,0.7346 -0.30132,1.2429 -0.13183,0.8098 0.30132,1.4314 0.26365,2.2224 -0.0188,0.7344 -0.43314,1.1487 -0.30132,1.8266 0.0376,0 0.0942,0.038 0.0942,0.094 0.0754,0.3579 0.11299,0.7721 -0.0188,1.13 -0.18831,0.5083 -0.39547,0.6591 0.18832,0.9604 0.15066,-0.113 0.15066,0.019 0.0565,0.075 l 0,0 z m -9.84927,-24.99043 c -0.35782,-2.20338 -0.56498,-4.50099 -1.29943,-6.61022 -0.32016,-0.88506 -0.47082,-1.84554 -1.50658,-2.01501 -1.35593,-0.22599 -0.90396,0.90396 -0.71563,1.97739 0.26365,1.65725 0.37665,3.35213 0.80978,4.99058 0.30132,1.12995 0.84746,2.46699 -0.65912,1.60074 -2.52352,-1.52541 -3.38981,-4.85874 -4.40675,-7.34462 -0.45198,-1.12995 -1.77023,-3.82293 -2.67418,-4.50089 -0.43314,-0.32013 -2.56119,-0.79101 -2.975505,-0.5085 -0.88512,0.60264 1.845565,4.83992 2.222215,5.59322 0.82862,1.69487 1.71373,3.37094 2.78718,4.89635 0.77211,1.07343 1.97738,2.07153 0.26364,2.71188 -1.77023,0.67796 -2.63651,-0.32013 -3.84178,-1.2429 -0.96044,-0.71568 -2.184545,-0.82863 -3.389815,-0.96048 -3.314475,-0.39546 -6.459464,-0.0189 -9.114812,2.18457 -1.280593,1.07342 -2.090382,2.54231 -2.768343,4.04891 -0.188323,0.37665 -1.280594,3.70997 -1.129936,3.72878 -0.677961,-0.11295 -0.263651,-1.69487 -1.129936,-0.77211 -0.772122,0.80982 0.225988,3.14495 0.564968,3.95477 0.772123,1.80791 1.58191,3.57812 2.184543,5.46137 0.602632,1.8833 0.734458,1.8456 2.467026,1.9962 2.203375,0.2071 4.369085,-0.4708 6.5348,-0.7345 0,0 -3.841785,-2.39165 3.74762,0.226 1.694905,0.5838 3.483975,0.4331 5.254205,0.4897 1.26177,-0.3014 1.29943,-2.4671 1.95855,-3.484 0.24482,-0.37665 1.46893,-2.29751 1.84557,-2.44817 0.54613,-0.20718 1.31826,0.35774 1.86439,0.43307 3.16382,0.48969 4.1431,-2.10914 3.63464,-4.65154 -0.43315,-2.22218 -0.18833,-4.70807 0.13181,-6.42176 0.13183,-0.64035 -0.54613,-2.01509 -0.65912,-2.59883 l 0,0 z m -14.143045,27.04313 c -0.33898,-0.3202 -0.84745,-0.3955 -1.18643,-0.7344 -0.18832,-0.2073 -0.24482,-0.3956 -0.20715,-0.6215 0,0 -0.0188,0 -0.0188,-0.019 -0.24482,-0.452 0.32014,-0.8287 0.71562,-0.6779 0.20716,0.095 0.50847,0.2259 0.54614,0.4708 0.0188,0.3201 -0.18833,0.5462 -0.24482,0.8285 0.22598,0.1319 0.45197,0.4521 0.56497,0.6027 0.0753,0.1318 -0.0753,0.2449 -0.16949,0.1506 l 0,0 z"
       id="path5" />
    <g
       transform="matrix(1.6070281,0,0,1.6070281,3.7859438,962.64971)"
       id="g3">
      <polygon
         style="fill:#e44d26"
         points="2,0 30.002,0 27.377,28.889 16.001,32 4.625,28.889 "
         id="polygon5" />
      <polygon
         style="fill:#ff6c39"
         points="16,29.75 25.232,27.008 27.688,2 16,2 "
         id="polygon7" />
      <polygon
         style="fill:#ffffff"
         points="23.718,13 12.252,13 12.002,10 24,10 24.363,6 7.607,6 8,10 8.619,17 19.503,17 19.148,20.984 16,21.99 12.857,20.984 12.648,19 8.803,19 9.262,23.987 16,25.99 22.728,23.986 "
         id="polygon9" />
    </g>
    <path
       style="fill:none;fill-rule:evenodd;stroke:#282c34;stroke-width:0.99769431px;stroke-linecap:butt;stroke-linejoin:miter;stroke-opacity:1;marker-start:url(#TriangleInL);marker-end:url(#TriangleOutL)"
       d="m 57.099179,988.13674 13.801642,0.45084"
       id="path4702"
       inkscape:connector-curvature="0" />
  </g>
</svg>
